<svg version="1.1" id="Layer_1" xmlns="http://www.w3.org/2000/svg" xmlns:xlink="http://www.w3.org/1999/xlink" x="0px" y="0px"
	 width="100%" viewBox="0 0 992 992" enable-background="new 0 0 992 992" xml:space="preserve">
<path fill="#000000" opacity="1.000000" stroke="none" 
	d="
M161.829803,804.187134 
	C157.822861,799.943848 153.468567,796.457214 151.216522,791.231384 
	C150.901962,790.501404 150.300247,789.679077 149.616043,789.357178 
	C140.118210,784.886902 135.366837,775.636658 128.815582,768.312134 
	C121.878563,760.556213 116.055405,751.803345 109.764442,743.471802 
	C109.268806,742.815369 109.022324,741.958801 108.487457,741.345886 
	C96.502747,727.611450 88.898384,711.108459 80.110275,695.438721 
	C68.896423,675.443726 61.809189,653.657166 55.112053,631.760071 
	C51.332993,619.403992 47.230560,607.074280 44.707592,594.471924 
	C42.479099,583.340454 41.170765,571.847961 39.281765,560.684998 
	C34.504929,532.456665 38.806854,504.255402 36.879791,476.131256 
	C36.618668,472.320374 36.500816,468.522705 38.916065,465.078613 
	C40.185768,463.268066 40.065628,460.861053 39.792149,458.738647 
	C38.838478,451.337555 40.147671,443.951050 41.641205,436.970490 
	C45.568699,418.613953 49.464756,400.168549 56.229122,382.552094 
	C59.607342,373.754242 60.934292,364.372742 64.534897,355.608002 
	C68.743561,345.363098 71.864777,334.618286 77.888260,325.237488 
	C79.822151,322.225708 80.659142,318.896912 82.337509,315.887604 
	C89.363998,303.289093 95.335693,290.001648 103.853607,278.368774 
	C110.200142,269.701355 115.705879,260.400940 123.488724,252.661377 
	C130.250580,245.937073 135.332397,237.557724 141.702927,230.395676 
	C147.873123,223.458893 154.745697,217.254257 160.256317,209.597412 
	C165.390045,202.464264 173.629196,198.288544 180.339172,192.612869 
	C185.508621,188.240250 191.204498,184.520111 196.439484,180.165802 
	C203.184418,174.555511 210.469711,169.581024 217.645676,164.507217 
	C223.318436,160.496246 228.436493,155.618622 235.143463,153.164291 
	C236.874680,152.530762 238.669342,151.201080 239.992569,153.316284 
	C241.136536,155.144913 239.432312,156.461578 238.229919,157.505295 
	C232.824890,162.197006 227.828690,167.459778 223.378006,172.877182 
	C212.440079,186.190903 199.458496,197.791672 190.377563,212.695343 
	C185.733276,220.317612 180.831085,227.817215 175.134369,234.805450 
	C170.748596,240.185532 168.857056,247.215424 164.659653,252.885757 
	C154.266953,266.925415 148.609024,283.389038 142.373260,299.376129 
	C138.010818,310.560394 134.349335,322.132568 131.386292,333.922760 
	C128.372726,345.914001 124.897415,357.862122 122.884811,370.009003 
	C121.598251,377.773834 120.698753,385.766602 119.484291,393.553802 
	C115.814293,417.085968 116.848549,440.704773 117.514008,464.232422 
	C117.826164,475.268555 118.662292,486.584564 121.402069,497.621613 
	C122.765022,503.112183 124.175819,508.877899 124.091255,514.764832 
	C124.011612,520.308777 126.802841,525.253906 127.907082,530.598938 
	C130.144028,541.426758 132.960541,552.189087 136.402649,562.695251 
	C138.820587,570.075317 142.174179,577.193542 144.184006,584.718323 
	C146.614120,593.816650 151.851715,601.630066 156.105484,609.721008 
	C161.444626,619.876221 166.412735,630.341858 173.534180,639.701965 
	C179.105270,647.024292 183.693634,655.303528 189.410217,662.571655 
	C197.457977,672.803650 204.522537,683.819214 214.129929,692.888977 
	C219.044434,697.528503 223.319733,702.969543 228.289688,707.630310 
	C241.598984,720.111755 255.253723,732.118469 269.908691,743.122742 
	C281.613495,751.911743 293.896301,759.675171 306.068756,767.675293 
	C315.934753,774.159546 327.226135,777.939270 337.446045,783.608948 
	C345.316711,787.975281 353.454163,791.582947 361.615753,795.112488 
	C373.742462,800.356750 386.251648,804.703247 398.813293,808.860901 
	C409.973755,812.554749 421.660339,813.713623 433.002106,816.350769 
	C452.764526,820.945984 472.672241,820.897644 492.676544,820.814819 
	C500.343018,820.783081 508.009796,820.786865 515.676331,820.812134 
	C525.294128,820.843811 534.511841,818.620850 543.851501,816.582153 
	C551.227356,814.972229 558.759827,814.022766 565.972046,811.651306 
	C577.953918,807.711548 589.686523,803.163940 600.807312,797.142273 
	C602.927673,795.994141 604.014038,794.376587 604.001953,791.946106 
	C603.962341,783.946960 604.801453,775.826477 603.665955,767.989868 
	C602.878113,762.552917 601.206787,756.968628 600.723450,751.547791 
	C599.960876,742.996033 595.380432,735.636414 594.598328,727.189697 
	C594.301575,723.984009 592.723083,720.875000 591.590698,717.772400 
	C585.685852,701.593628 578.422058,685.980530 571.203186,670.378479 
	C565.494873,658.041260 558.425537,646.444153 549.882935,635.707947 
	C543.809265,628.074707 537.472229,620.554688 531.843140,612.701416 
	C526.634644,605.434937 520.385742,599.088623 515.383362,591.820862 
	C508.678558,582.079712 499.120483,575.125916 491.852661,566.097839 
	C476.874054,547.491455 458.961914,531.750916 442.755066,514.366882 
	C435.492035,506.576294 427.749207,499.082733 421.348999,490.621368 
	C412.404053,478.795654 401.130096,469.019287 392.601593,456.952545 
	C385.898132,447.467987 380.392761,437.130066 373.596710,427.718903 
	C360.093872,409.020294 350.236542,388.326447 340.396545,367.686951 
	C334.666595,355.668304 330.872467,342.802826 328.410614,329.506775 
	C327.386688,323.976715 327.579071,317.930206 324.598846,312.756897 
	C324.276428,312.197174 324.009521,311.484863 324.041016,310.859680 
	C324.719666,297.384064 319.457916,284.003571 322.103973,270.734741 
	C324.190063,260.273956 324.236023,249.641327 327.612762,239.140686 
	C332.225189,224.797546 338.529358,211.459274 345.120728,198.111374 
	C345.853424,196.627609 346.587219,195.019699 347.731415,193.882965 
	C360.225647,181.470078 370.425842,166.943100 383.553406,155.110977 
	C386.554199,152.406265 389.695435,150.029587 393.405426,148.418793 
	C403.433075,144.065063 411.137695,136.185318 420.351471,130.628860 
	C429.580597,125.063148 439.317078,120.499779 449.350525,116.431976 
	C456.403717,113.572433 463.447296,110.757782 470.664764,108.364212 
	C481.442444,104.789948 492.222412,101.222420 503.011749,97.683540 
	C516.574036,93.235146 530.544617,91.739639 544.718201,90.235100 
	C555.001648,89.143509 565.262146,88.258087 575.377197,89.028343 
	C582.988831,89.607956 590.750671,87.892059 598.392151,90.872421 
	C603.671021,92.931290 609.815369,91.837662 615.575073,92.507256 
	C626.476868,93.774605 636.838867,97.402794 647.761108,98.453918 
	C656.155029,99.261757 664.184692,102.397354 672.089844,105.284393 
	C690.759338,112.102676 709.541870,118.718315 727.256836,127.860603 
	C733.886292,131.281906 740.377380,135.010742 746.716492,138.945908 
	C756.738464,145.167343 766.785828,151.314682 777.403625,156.490723 
	C779.330505,157.430038 781.456543,158.441208 782.802856,160.009583 
	C789.366638,167.655930 798.052307,172.819077 805.376648,179.598648 
	C812.516968,186.207886 820.832520,191.560410 828.729919,197.330872 
	C831.158142,199.105133 833.939514,200.559814 835.530945,203.123810 
	C842.942322,215.065002 854.264343,223.336227 863.717590,233.350845 
	C867.199524,237.039566 869.380249,241.555237 872.584290,245.383286 
	C878.853149,252.873016 885.126404,260.362396 891.228333,267.987579 
	C897.365723,275.657135 902.001526,284.342224 906.922852,292.776794 
	C911.258850,300.208008 915.349915,307.912964 918.908508,315.681396 
	C924.149170,327.121704 931.089111,337.795380 934.842957,349.910004 
	C937.054504,357.047028 941.429321,363.245880 943.141724,370.672180 
	C945.476501,380.797455 948.324524,390.834686 951.540222,400.718445 
	C955.042175,411.482117 955.982727,422.735809 958.614868,433.608734 
	C962.073608,447.896240 962.065308,462.353302 963.463867,476.774017 
	C964.829712,490.857452 966.847168,505.100372 964.804993,518.865845 
	C962.979309,531.172241 963.771790,543.520630 961.737915,555.809265 
	C960.202148,565.088684 958.042969,574.220825 956.557068,583.458252 
	C953.807129,600.553284 948.269043,616.735779 943.018921,633.100220 
	C938.807800,646.226013 934.132080,659.228455 928.036560,671.452576 
	C920.913574,685.737122 913.649963,700.014954 905.344666,713.746277 
	C898.902100,724.397888 890.782104,733.863342 884.724548,744.723572 
	C884.322327,745.444580 883.797424,746.119934 883.230042,746.722778 
	C865.364807,765.704956 850.278748,787.310059 830.278198,804.227844 
	C820.048462,812.880798 810.002380,821.760498 799.177063,829.829529 
	C785.797058,839.802856 770.713928,846.806335 757.369080,856.628845 
	C756.287964,857.424561 755.023621,858.009155 753.368713,856.359375 
	C754.262329,852.192932 758.162842,849.983459 760.869812,847.191467 
	C770.459167,837.300354 778.960876,826.487610 788.073242,816.213623 
	C798.604614,804.339905 807.447510,791.357422 816.362061,778.363770 
	C822.380005,769.592041 827.180969,760.108337 832.332275,750.819458 
	C837.166321,742.102844 841.121765,732.987427 845.260071,723.978210 
	C849.527832,714.687378 853.021484,705.017578 855.971252,695.174133 
	C859.565308,683.180420 863.871704,671.382568 867.002930,659.275757 
	C868.429810,653.758667 871.164978,648.451050 870.790100,642.448730 
	C870.592346,639.281494 872.090332,636.117310 873.176941,633.437988 
	C876.245605,625.871521 872.951477,617.296265 877.509216,610.154175 
	C877.909302,609.527100 877.794800,608.525635 877.797485,607.697693 
	C877.869019,585.789612 881.895142,563.944458 879.740295,542.059509 
	C878.677002,531.261475 879.081970,520.240540 876.052246,509.629242 
	C875.475159,507.608185 875.695190,505.328522 875.724670,503.170593 
	C875.846436,494.278168 873.161316,485.874237 871.388489,477.302704 
	C869.344299,467.419373 866.508972,457.752502 863.877014,448.023651 
	C859.330933,431.219421 852.878418,415.170898 846.288879,399.073151 
	C840.462280,384.839081 832.496277,371.875519 825.148010,358.574921 
	C821.130676,351.303406 814.233093,345.516876 810.376343,338.042084 
	C805.505676,328.602386 798.129578,321.172882 791.718994,313.075348 
	C781.530762,300.206238 770.817261,287.536591 758.202881,276.930267 
	C744.400085,265.324768 730.180237,254.147812 715.527893,243.640839 
	C703.142761,234.759720 690.412476,226.000717 676.263306,220.225601 
	C668.358398,216.999146 661.810669,211.462173 653.751404,208.821609 
	C642.406128,205.104370 631.892700,198.992950 620.469666,195.877731 
	C607.299683,192.286102 594.293457,188.041534 580.775330,185.446823 
	C571.129822,183.595444 561.433044,181.084488 551.764282,179.595078 
	C542.873108,178.225464 533.741028,177.020233 524.877319,175.702194 
	C509.533936,173.420593 494.236298,173.532791 479.156189,174.535095 
	C463.586365,175.569946 447.882568,176.237106 432.735931,183.383881 
	C421.644440,188.617249 418.531494,197.401031 414.441132,206.472672 
	C411.382996,213.255051 410.892090,220.890274 409.227448,228.081161 
	C407.536102,235.387527 407.739410,242.496170 407.029968,249.694412 
	C406.189941,258.217194 410.236298,265.831512 410.805542,274.084961 
	C411.412048,282.878906 415.451904,290.923462 417.196350,299.503601 
	C417.551544,301.250549 418.597046,302.848755 419.244385,304.546021 
	C425.784973,321.695099 434.395721,337.867798 445.850677,352.068573 
	C452.606323,360.443481 457.341431,370.235199 465.341400,377.769958 
	C470.059418,382.213593 472.081055,389.068359 476.670776,394.014923 
	C482.188843,399.962036 487.581665,405.969055 493.393219,411.680359 
	C501.070068,419.224854 508.845428,426.787506 515.930908,434.912354 
	C531.690491,452.983612 548.680542,469.846710 565.536865,486.857758 
	C569.131409,490.485291 572.322754,494.662567 574.985962,499.022644 
	C577.990845,503.942200 582.403931,507.527283 585.830750,511.941162 
	C593.778076,522.177673 603.045166,531.234680 611.246399,541.259827 
	C617.365601,548.739868 623.099915,556.539673 628.486450,564.405945 
	C639.708679,580.794373 651.672363,596.809753 659.534668,615.343689 
	C664.383606,626.774231 669.125916,638.084290 671.483643,650.421997 
	C672.704590,656.810974 675.695007,662.910400 676.775269,669.469604 
	C677.897644,676.284790 679.710876,683.052673 680.104797,689.905518 
	C680.677612,699.872375 680.103821,709.899475 680.285278,719.896057 
	C680.507263,732.127319 677.171021,743.712097 674.478516,755.454285 
	C671.618103,767.928894 667.916199,780.054871 662.291626,791.595825 
	C655.665771,805.191162 648.448364,818.320923 638.263367,829.726562 
	C634.769531,833.639221 632.049927,838.271484 628.250244,842.040710 
	C617.251343,852.951477 605.075439,862.410217 591.878967,870.402832 
	C579.774475,877.734253 568.224365,886.232178 554.927795,891.324463 
	C542.641174,896.029968 530.816101,901.783508 517.804932,904.951904 
	C509.063293,907.080566 499.937439,907.896118 491.481598,911.258301 
	C490.877991,911.498291 490.181335,911.524902 489.522247,911.601685 
	C472.151123,913.626892 454.705109,913.342468 437.266052,913.303467 
	C426.099518,913.278442 414.890350,913.900757 403.779327,913.115173 
	C394.305725,912.445374 384.804047,911.469971 375.369293,909.760925 
	C369.892242,908.768799 364.227814,907.982910 358.850677,906.736023 
	C347.953278,904.208923 336.778961,902.794495 326.181549,898.895874 
	C317.511475,895.706299 308.535706,893.334290 299.916199,890.024902 
	C293.115509,887.413818 286.777222,883.611389 280.006989,880.904968 
	C269.820099,876.832703 259.499695,872.769714 250.392761,866.833435 
	C235.542572,857.153442 219.453522,849.523193 205.410416,838.443542 
	C197.926544,832.538940 190.469604,826.480713 182.456924,821.108459 
	C175.278107,816.295349 168.168854,810.860229 161.829803,804.187134 
z"/>
</svg>